<?xml version="1.0" standalone="no"?>
<!DOCTYPE svg PUBLIC "-//W3C//DTD SVG 20010904//EN"
 "http://www.w3.org/TR/2001/REC-SVG-20010904/DTD/svg10.dtd">
<svg version="1.0" xmlns="http://www.w3.org/2000/svg"
 width="500.000000pt" height="500.000000pt" viewBox="0 0 500.000000 500.000000"
 preserveAspectRatio="xMidYMid meet">
<metadata>
Created by potrace 1.14, written by Peter Selinger 2001-2017
</metadata>
<g transform="translate(0.000000,500.000000) scale(0.100000,-0.100000)"
fill="#000000" stroke="none">
<path d="M1766 3694 c-14 -14 -16 -103 -16 -828 0 -744 1 -815 17 -827 12 -11
72 -15 267 -17 138 -2 261 -1 273 3 56 14 53 -34 53 844 0 770 -1 809 -18 824
-16 15 -51 17 -290 17 -233 0 -273 -2 -286 -16z m326 -57 c14 -23 19 -79 7
-93 -17 -21 -40 -17 -77 14 -28 23 -32 32 -26 56 10 41 74 57 96 23z m-202
-32 c0 -8 -7 -15 -15 -15 -8 0 -15 7 -15 15 0 8 7 15 15 15 8 0 15 -7 15 -15z
m71 -105 c20 -11 25 -35 10 -44 -18 -11 -41 6 -41 30 0 27 3 28 31 14z m157
-34 c16 -36 -7 -53 -38 -28 -21 17 -21 19 -5 35 22 23 30 21 43 -7z m-241 -31
c3 -9 3 -19 -1 -22 -8 -9 -37 18 -30 28 8 14 24 11 31 -6z m427 -85 c-7 -7
-16 -5 -30 5 -16 13 -17 16 -4 24 19 13 50 -13 34 -29z m-414 -40 c0 -13 -7
-20 -20 -20 -13 0 -20 7 -20 20 0 13 7 20 20 20 13 0 20 -7 20 -20z m220 -65
c0 -37 -34 -51 -60 -25 -25 25 -25 35 2 54 28 20 58 4 58 -29z m-177 -1 c-6
-15 -33 -20 -33 -5 0 5 3 17 6 25 5 13 10 14 20 6 7 -7 10 -18 7 -26z m356
-90 c-15 -18 -28 -18 -36 2 -8 20 17 36 34 22 10 -8 10 -14 2 -24z m-432 -25
c16 -16 5 -39 -18 -39 -24 0 -37 29 -18 41 18 11 23 11 36 -2z m338 -15 c21
-22 16 -42 -17 -67 -27 -20 -28 -20 -48 -2 -23 21 -25 37 -8 65 15 24 51 26
73 4z m-138 -80 c25 -10 33 -20 39 -48 8 -47 2 -62 -38 -86 -51 -31 -80 -26
-122 20 -41 46 -42 51 -19 90 29 50 63 56 140 24z m187 -53 c3 -5 0 -13 -7
-19 -15 -13 -42 1 -33 17 9 13 33 15 40 2z m-316 -217 c34 -24 28 -56 -17 -81
-34 -20 -41 -21 -51 -8 -10 12 -10 22 0 47 15 37 29 58 39 58 4 0 17 -7 29
-16z m162 -23 c0 -3 -5 -13 -10 -21 -8 -13 -12 -13 -27 3 -15 15 -16 19 -4 26
14 9 41 4 41 -8z m200 -127 c0 -16 -16 -19 -25 -4 -8 13 4 32 16 25 5 -4 9
-13 9 -21z m-209 -15 c38 -38 4 -84 -45 -61 -31 14 -36 55 -8 71 24 15 29 14
53 -10z m183 -90 c30 -23 33 -45 10 -77 -17 -24 -65 -30 -82 -9 -6 6 -13 28
-17 48 -6 30 -3 39 12 48 27 16 47 13 77 -10z m-330 1 c21 -8 26 -16 26 -45 0
-29 -5 -38 -26 -47 -24 -11 -29 -9 -50 15 -26 31 -30 57 -12 75 15 15 29 15
62 2z m156 -136 c0 -16 -26 -19 -35 -4 -3 6 -4 14 0 20 8 13 35 1 35 -16z
m-95 -40 c0 -10 -8 -20 -17 -22 -18 -3 -26 27 -11 42 12 11 28 0 28 -20z
m-114 6 c29 -16 27 -78 -3 -89 -26 -10 -58 11 -58 38 0 17 27 61 36 61 3 0 14
-5 25 -10z m369 -15 c16 -19 4 -35 -26 -35 -26 0 -32 18 -12 38 16 16 23 15
38 -3z m-185 -85 c-9 -15 -32 -12 -39 5 -7 20 26 38 37 19 4 -8 5 -19 2 -24z
m15 -75 c15 -18 10 -45 -12 -59 -25 -15 -71 29 -57 55 12 23 52 25 69 4z m214
-12 c8 -20 -48 -76 -73 -71 -23 5 -27 59 -5 75 25 19 71 16 78 -4z"/>
<path d="M2657 3692 c-16 -17 -17 -89 -17 -825 0 -876 -3 -828 53 -842 12 -4
136 -5 274 -3 226 3 254 5 270 21 17 17 18 63 21 755 3 767 0 872 -25 897 -12
13 -59 15 -287 15 -252 0 -274 -1 -289 -18z m306 -41 c19 -7 27 -20 32 -51 12
-73 -27 -92 -81 -39 -29 28 -31 34 -22 60 5 15 17 30 26 32 9 3 18 5 19 6 1 0
13 -3 26 -8z m-179 -46 c3 -9 0 -15 -9 -15 -16 0 -27 14 -18 24 10 10 21 7 27
-9z m90 -124 c3 -5 -1 -14 -10 -22 -12 -10 -18 -9 -31 4 -22 22 -10 51 16 37
11 -5 22 -14 25 -19z m138 -17 c15 -31 -5 -49 -34 -31 -30 19 -21 53 15 56 4
1 13 -11 19 -25z m-237 -34 c0 -22 -29 -18 -33 3 -3 14 1 18 15 15 10 -2 18
-10 18 -18z m425 -64 c0 -23 -17 -28 -34 -10 -21 21 -20 24 9 24 15 0 25 -6
25 -14z m-420 -57 c0 -14 -5 -19 -17 -17 -26 5 -29 38 -4 38 15 0 21 -6 21
-21z m223 -67 c-10 -29 -34 -42 -54 -31 -27 14 -24 54 4 66 27 13 59 -10 50
-35z m-173 12 c0 -15 -27 -30 -36 -21 -3 3 -3 15 1 26 7 22 35 18 35 -5z m352
-106 c-10 -10 -16 -8 -30 5 -15 16 -15 19 -2 27 21 13 49 -15 32 -32z m-435
-19 c15 -15 5 -39 -17 -39 -22 0 -32 24 -17 39 6 6 14 11 17 11 3 0 11 -5 17
-11z m334 -9 c29 -16 24 -57 -10 -74 -25 -13 -31 -13 -50 0 -25 18 -26 32 -5
62 17 24 35 28 65 12z m-124 -88 c24 -13 33 -33 33 -70 0 -35 -8 -46 -47 -66
-46 -23 -76 -20 -105 12 -46 49 -53 71 -31 101 37 49 86 57 150 23z m177 -51
c3 -5 0 -13 -7 -19 -15 -13 -42 1 -33 17 9 13 33 15 40 2z m-315 -211 c8 0 34
-50 29 -56 -2 -1 -20 -14 -40 -28 -29 -20 -40 -22 -53 -13 -13 10 -14 18 -4
47 16 46 29 62 46 55 8 -3 18 -5 22 -5z m161 -35 c0 -22 -15 -26 -36 -10 -16
12 -17 16 -5 24 18 11 41 3 41 -14z m206 -106 c3 -6 1 -16 -5 -22 -9 -9 -14
-8 -21 3 -9 15 -4 30 10 30 5 0 12 -5 16 -11z m-198 -53 c4 -21 -15 -46 -36
-46 -21 0 -52 30 -52 50 0 25 40 41 65 25 11 -7 21 -20 23 -29z m169 -68 c44
-41 16 -103 -44 -96 -23 2 -30 10 -41 42 -11 34 -10 41 4 57 23 25 53 24 81
-3z m-317 -6 c29 -24 21 -67 -16 -84 -23 -11 -28 -9 -49 18 -27 32 -31 54 -13
72 17 17 52 15 78 -6z m139 -116 c9 -10 9 -16 1 -21 -17 -11 -40 3 -34 20 8
19 18 19 33 1z m-95 -32 c12 -5 13 -10 5 -25 -13 -24 -39 -25 -39 -1 0 29 9
36 34 26z m-113 -14 c13 -7 19 -21 19 -45 0 -24 -6 -38 -19 -45 -27 -14 -28
-13 -46 14 -15 22 -15 27 0 55 17 35 19 35 46 21z m370 -16 c11 -14 10 -18 -6
-30 -16 -12 -21 -12 -34 0 -12 12 -12 18 -1 30 16 20 24 20 41 0z m-184 -78
c-9 -23 -37 -20 -37 3 0 21 20 33 34 20 5 -4 6 -15 3 -23z m18 -100 c0 -16 -7
-33 -17 -39 -30 -20 -76 41 -51 67 4 4 21 6 38 4 26 -3 30 -7 30 -32z m212 8
c3 -9 -7 -28 -27 -49 -27 -27 -37 -32 -52 -24 -27 15 -24 67 5 79 35 14 67 11
74 -6z"/>
</g>
</svg>
