<?xml version="1.0" standalone="no"?>
<!DOCTYPE svg PUBLIC "-//W3C//DTD SVG 20010904//EN"
 "http://www.w3.org/TR/2001/REC-SVG-20010904/DTD/svg10.dtd">
<svg version="1.0" xmlns="http://www.w3.org/2000/svg"
 width="500.000000pt" height="500.000000pt" viewBox="0 0 500.000000 500.000000"
 preserveAspectRatio="xMidYMid meet">
<metadata>
Created by potrace 1.14, written by Peter Selinger 2001-2017
</metadata>
<g transform="translate(0.000000,500.000000) scale(0.100000,-0.100000)"
fill="#000000" stroke="none">
<path d="M1073 4429 c-39 -11 -80 -59 -88 -102 -3 -18 -4 -743 -3 -1612 3
-1491 4 -1582 21 -1608 42 -65 17 -62 602 -62 590 0 562 -3 605 68 20 31 20
64 20 1627 0 1563 0 1596 -20 1627 -43 71 -17 68 -590 70 -296 1 -528 -2 -547
-8z m591 -142 c13 -13 30 -51 39 -90 20 -77 14 -95 -40 -124 -40 -21 -59 -12
-133 62 -51 52 -52 54 -41 88 20 60 53 87 106 87 34 0 52 -6 69 -23z m-384
-77 c0 -25 -4 -30 -24 -30 -17 0 -25 7 -28 25 -6 30 -2 35 29 35 19 0 23 -5
23 -30z m156 -221 c40 -25 41 -29 10 -58 -23 -22 -25 -22 -55 -7 -32 17 -35
25 -25 64 8 28 27 28 70 1z m273 -18 c10 -6 23 -28 31 -51 12 -37 12 -42 -5
-54 -21 -15 -37 -12 -77 16 -34 24 -35 42 -3 73 27 28 29 29 54 16z m-461 -83
c15 -15 16 -68 2 -68 -14 0 -60 46 -60 59 0 8 12 14 41 20 3 0 10 -4 17 -11z
m855 -132 c14 -11 16 -18 7 -41 -9 -23 -14 -26 -38 -20 -31 8 -42 21 -42 53 0
17 6 22 28 22 15 0 35 -7 45 -14z m-835 -133 c3 -31 1 -33 -27 -33 -24 0 -32
5 -37 24 -8 34 3 48 34 44 22 -2 28 -9 30 -35z m436 -75 c37 -52 2 -128 -59
-128 -38 0 -75 37 -75 74 1 62 101 102 134 54z m-345 -12 c7 -8 9 -25 5 -40
-5 -20 -12 -26 -35 -26 -23 0 -29 5 -29 21 0 48 35 75 59 45z m716 -186 c18
-20 18 -21 -1 -40 -24 -25 -58 -17 -73 16 -14 32 -14 32 7 37 35 9 49 7 67
-13z m-875 -87 c14 -9 26 -17 28 -19 2 -1 -4 -16 -13 -33 -22 -44 -67 -44 -85
0 -12 29 -12 33 11 50 30 23 29 23 59 2z m690 -28 c28 -25 27 -88 -1 -116 -11
-11 -37 -27 -56 -35 -31 -13 -38 -13 -59 1 -43 28 -58 60 -45 97 24 70 38 81
92 76 28 -3 58 -13 69 -23z m-328 -145 c68 -21 103 -47 119 -87 15 -39 11
-126 -7 -152 -23 -32 -150 -91 -195 -91 -33 0 -44 7 -93 63 -94 105 -102 147
-40 220 60 71 105 81 216 47z m413 -155 c-34 -25 -84 -12 -72 19 11 29 49 37
72 15 19 -19 19 -19 0 -34z m-630 -400 c37 -15 55 -46 55 -94 0 -22 -7 -31
-30 -41 -17 -7 -49 -26 -71 -42 -30 -22 -44 -26 -58 -19 -42 23 -44 36 -16
113 14 40 28 79 30 86 6 16 48 15 90 -3z m309 -38 c22 -16 12 -72 -11 -63 -8
3 -21 6 -29 6 -8 0 -20 12 -26 26 -10 21 -9 27 3 35 20 12 42 11 63 -4z m426
-253 c0 -30 -28 -53 -41 -33 -10 16 -12 41 -3 63 8 22 44 -2 44 -30z m-425
-45 c41 -37 48 -84 15 -114 -27 -25 -107 -16 -132 15 -23 28 -23 82 0 102 41
36 73 35 117 -3z m376 -188 c47 -46 50 -52 44 -83 -9 -40 -39 -85 -63 -92 -51
-14 -98 -16 -114 -4 -10 7 -28 46 -40 87 l-22 74 37 33 c55 51 93 47 158 -15z
m-684 14 c28 -8 56 -22 63 -30 15 -18 15 -97 1 -124 -12 -21 -93 -53 -107 -42
-16 11 -94 113 -94 123 0 18 30 67 47 77 24 14 31 13 90 -4z m323 -254 c15
-29 13 -37 -14 -49 -21 -9 -27 -8 -39 12 -10 15 -12 27 -5 39 12 23 45 22 58
-2z m-188 -68 c23 -21 23 -36 -1 -57 -26 -23 -54 -17 -61 14 -4 18 0 30 15 42
25 22 25 22 47 1z m-222 -30 c31 -18 40 -39 40 -91 0 -37 -36 -81 -70 -83 -11
-1 -24 -2 -30 -3 -14 -1 -60 65 -60 87 0 10 12 38 26 63 29 49 48 54 94 27z
m748 -46 c3 -20 -3 -29 -28 -42 -54 -28 -96 6 -69 57 18 34 29 38 63 24 22 -9
32 -20 34 -39z m-388 -97 c16 -29 4 -57 -26 -63 -20 -3 -27 1 -35 20 -13 34
-12 39 14 51 31 15 35 14 47 -8z m37 -196 c20 -28 16 -91 -7 -114 -29 -29 -55
-25 -100 19 -46 44 -49 65 -17 99 19 20 29 23 66 19 27 -3 50 -12 58 -23z
m415 -11 c30 -27 21 -50 -44 -113 -35 -33 -64 -60 -66 -60 -14 0 -63 37 -67
51 -7 21 10 98 24 112 10 10 68 23 115 26 11 0 28 -6 38 -16z"/>
<path d="M2865 4430 c-17 -5 -44 -23 -60 -40 l-30 -31 0 -1619 0 -1619 30 -31
c16 -16 46 -35 67 -41 24 -6 223 -9 546 -7 559 3 537 1 579 65 17 26 18 116
18 1633 0 1517 -1 1607 -18 1633 -42 64 -19 62 -587 64 -283 1 -529 -3 -545
-7z m583 -137 c21 -19 52 -112 52 -157 0 -28 -54 -76 -86 -76 -10 0 -47 28
-82 62 -57 55 -63 66 -58 92 4 16 18 44 32 63 22 29 30 33 73 33 32 0 56 -6
69 -17z m-384 -69 c12 -31 6 -44 -18 -44 -25 0 -43 30 -31 50 10 16 42 12 49
-6z m162 -238 c27 -23 28 -24 11 -50 -20 -30 -34 -32 -65 -10 -21 15 -31 62
-15 77 13 14 43 6 69 -17z m271 -14 c7 -4 19 -25 28 -46 16 -37 16 -40 -3 -59
-20 -19 -20 -19 -61 4 -54 30 -56 69 -6 97 24 14 27 14 42 4z m-459 -84 c15
-15 16 -55 0 -64 -6 -4 -24 7 -41 27 l-31 33 25 7 c35 10 34 10 47 -3z m853
-134 c14 -13 16 -20 7 -40 -12 -27 -16 -28 -51 -15 -23 9 -42 53 -29 66 11 11
56 4 73 -11z m-831 -135 c0 -28 -2 -30 -32 -27 -41 4 -57 46 -24 65 30 17 56
-1 56 -38z m430 -71 c25 -27 25 -54 0 -95 -16 -27 -26 -33 -54 -33 -40 0 -71
27 -79 68 -4 20 2 33 25 54 37 34 79 37 108 6z m-334 -35 c-4 -8 -6 -21 -6
-29 0 -9 -11 -14 -30 -14 -33 0 -39 19 -19 64 11 24 13 24 36 9 14 -9 22 -22
19 -30z m709 -163 c18 -20 18 -21 -1 -40 -24 -25 -58 -17 -73 16 -14 32 -14
32 7 37 35 9 49 7 67 -13z m-874 -91 c28 -20 28 -21 13 -50 -13 -25 -20 -30
-47 -27 -24 2 -34 9 -42 32 -8 24 -6 31 14 47 29 23 27 23 62 -2z m691 -29
c22 -28 23 -83 2 -105 -9 -8 -34 -25 -56 -36 -37 -19 -41 -19 -64 -4 -58 38
-66 87 -22 148 19 27 25 29 71 24 37 -3 56 -11 69 -27z m-298 -153 c65 -30 85
-58 93 -129 8 -80 -10 -108 -98 -152 -44 -22 -86 -36 -109 -36 -33 0 -44 7
-91 58 -62 67 -89 109 -89 138 0 30 55 111 92 135 43 27 125 21 202 -14z m381
-107 c18 -20 18 -21 -1 -35 -24 -18 -45 -19 -67 -2 -13 10 -14 15 -4 28 11 14
31 26 48 28 3 1 14 -8 24 -19z m-630 -434 c26 -11 36 -24 46 -54 15 -53 9 -67
-43 -93 -24 -12 -54 -30 -67 -40 -21 -17 -26 -17 -52 -3 -41 20 -40 23 22 182
10 26 43 29 94 8z m307 -38 c21 -17 13 -72 -9 -64 -8 3 -21 6 -29 6 -19 0 -48
57 -31 63 23 10 53 7 69 -5z m428 -258 c0 -21 -25 -44 -38 -36 -15 9 -20 40
-10 65 8 23 9 23 28 6 11 -10 20 -26 20 -35z m-425 -45 c38 -39 44 -68 19
-103 -21 -31 -93 -31 -129 1 -37 31 -37 82 -1 114 38 33 69 29 111 -12z m328
-146 c49 -25 87 -72 87 -106 0 -40 -23 -89 -48 -101 -30 -16 -102 -23 -121
-12 -25 13 -65 132 -57 166 7 28 60 64 94 64 13 0 33 -5 45 -11z m-637 -25
c65 -19 78 -39 71 -107 -5 -52 -12 -61 -74 -84 -37 -13 -42 -10 -96 58 -45 56
-46 81 -8 120 34 34 36 34 107 13z m318 -250 c23 -22 20 -39 -9 -52 -22 -10
-27 -9 -41 13 -13 20 -14 28 -4 40 16 19 35 19 54 -1z m-166 -92 c5 -16 -35
-52 -57 -52 -30 0 -35 51 -8 72 18 14 25 15 41 4 11 -7 22 -18 24 -24z m-231
-16 c24 -21 28 -31 27 -76 -1 -57 -11 -71 -64 -89 -33 -11 -36 -10 -62 21 -34
41 -35 70 -3 125 30 51 59 56 102 19z m728 -16 c25 -27 15 -52 -27 -68 -31
-12 -41 -12 -53 -2 -21 17 -19 56 4 79 22 22 51 19 76 -9z m-377 -121 c15 -23
7 -59 -13 -59 -7 0 -20 -3 -28 -6 -25 -9 -34 54 -10 71 25 20 36 18 51 -6z
m22 -187 c32 -26 38 -91 10 -119 -31 -34 -60 -29 -109 21 -42 43 -43 44 -27
74 9 17 21 32 28 35 28 12 77 6 98 -11z m440 -34 c15 -28 15 -28 -52 -94 l-66
-67 -34 20 c-31 18 -33 23 -33 71 1 61 17 82 72 93 66 13 96 7 113 -23z"/>
</g>
</svg>
